<?xml version="1.0" standalone="no"?>
<!DOCTYPE svg PUBLIC "-//W3C//DTD SVG 20010904//EN"
 "http://www.w3.org/TR/2001/REC-SVG-20010904/DTD/svg10.dtd">
<svg version="1.0" xmlns="http://www.w3.org/2000/svg"
 width="352.000000pt" height="303.000000pt" viewBox="0 0 352.000000 303.000000"
 preserveAspectRatio="xMidYMid meet">

<g transform="translate(0.000000,303.000000) scale(0.100000,-0.100000)"
fill="#d7edc7" stroke="none">
<path d="M1631 3019 c-648 -51 -1201 -479 -1414 -1095 -66 -190 -82 -292 -82
-529 0 -294 40 -497 149 -746 6 -14 -1 -18 -39 -23 -64 -10 -153 -42 -197 -71
-27 -18 -35 -29 -31 -45 4 -15 14 -20 38 -20 63 0 289 -87 309 -118 3 -5 -20
-19 -50 -32 -74 -30 -158 -110 -233 -219 -34 -49 -61 -92 -61 -95 0 -3 22 -6
48 -6 35 0 64 8 103 30 75 40 178 78 263 96 100 21 324 20 504 -2 l44 -6 -7
84 c-8 101 0 116 71 129 230 43 667 67 937 51 205 -13 488 -45 531 -62 33 -12
40 -43 31 -132 l-6 -71 28 7 c15 3 118 9 228 12 160 5 216 3 281 -9 88 -17
207 -61 289 -106 43 -24 55 -26 85 -18 19 5 37 11 39 13 9 9 -112 174 -164
223 -30 29 -83 65 -117 80 l-61 28 24 16 c60 40 185 89 254 100 49 7 77 17 80
27 13 33 -98 90 -218 113 -34 6 -56 15 -53 21 176 400 204 874 75 1261 -181
545 -634 955 -1190 1079 -163 36 -329 48 -488 35z m404 -69 c493 -83 939 -423
1154 -881 98 -209 139 -378 148 -609 10 -265 -34 -519 -129 -746 l-30 -72
-111 -4 c-62 -3 -114 -3 -116 -1 -3 2 5 37 17 78 30 103 30 110 -18 124 -22 6
-40 13 -40 14 0 1 15 45 34 97 56 157 70 244 70 425 0 117 -5 183 -18 245
-112 518 -509 906 -1022 995 -114 20 -316 19 -435 -1 -618 -106 -1066 -668
-1036 -1297 6 -131 27 -239 68 -357 40 -113 40 -112 -3 -123 -45 -11 -45 -14
-16 -118 11 -44 19 -80 17 -82 -2 -1 -54 -1 -116 1 l-112 3 -29 72 c-44 106
-78 221 -104 348 -19 98 -23 145 -23 329 0 185 4 229 23 316 91 418 325 768
667 998 341 231 742 315 1160 246z m-58 -386 c688 -123 1126 -809 953 -1494
-23 -90 -64 -193 -79 -198 -5 -2 -70 10 -143 27 -338 77 -643 111 -979 111
-287 1 -562 -35 -954 -124 -83 -19 -111 -22 -117 -13 -17 26 -68 178 -83 248
-25 115 -30 324 -11 444 111 671 743 1119 1413 999z m213 -1619 c279 -38 740
-136 740 -158 0 -7 -7 -47 -15 -90 -19 -97 -19 -212 -1 -297 8 -36 13 -66 12
-67 -1 -2 -56 9 -122 23 -370 78 -712 122 -1014 131 -268 8 -330 0 -938 -112
-139 -26 -255 -45 -257 -43 -1 1 3 32 11 68 18 88 17 208 -2 308 -9 45 -14 85
-11 88 8 8 176 51 312 78 137 28 357 60 525 75 63 6 133 13 155 15 88 9 496
-4 605 -19z m-1684 -346 c32 -6 62 -14 66 -17 3 -4 0 -56 -8 -117 -8 -60 -14
-125 -12 -143 3 -33 5 -35 108 -72 58 -21 134 -48 170 -59 l65 -20 -50 5 c-27
3 -97 12 -155 21 -243 36 -368 11 -549 -111 -30 -20 -56 -35 -58 -32 -7 7 113
151 163 194 59 51 157 102 196 102 15 0 28 4 28 9 0 4 -38 36 -85 69 -78 55
-129 79 -209 97 -16 3 -25 10 -20 14 16 14 97 43 159 56 76 17 116 18 191 4z
m2772 -24 c90 -28 107 -41 65 -51 -79 -17 -130 -41 -208 -96 -84 -60 -96 -78
-51 -78 33 0 134 -54 188 -100 48 -41 172 -189 165 -196 -2 -2 -35 16 -72 41
-90 59 -197 103 -280 114 -69 10 -121 6 -325 -23 -58 -9 -112 -16 -120 -16 -8
0 62 26 155 58 197 67 184 51 165 207 -20 160 -23 148 40 162 76 17 182 8 278
-22z"/>
<path d="M1612 2894 c-44 -30 -20 -124 31 -124 9 0 17 5 17 10 0 6 -7 10 -15
10 -34 0 -47 73 -15 90 20 10 28 30 12 30 -4 0 -18 -7 -30 -16z"/>
<path d="M1690 2891 c-24 -47 -1 -121 38 -121 21 0 42 32 42 66 0 48 -16 74
-45 74 -14 0 -29 -8 -35 -19z m56 -26 c7 -30 -2 -75 -16 -75 -17 0 -33 47 -26
74 8 33 34 34 42 1z"/>
<path d="M1817 2903 c-3 -5 -8 -30 -12 -57 -3 -27 -9 -55 -12 -62 -3 -8 1 -14
11 -14 11 0 16 9 17 28 0 15 4 36 9 47 6 15 9 8 9 -28 1 -59 19 -59 37 -1 l12
39 1 -47 c1 -37 5 -48 17 -48 12 0 15 6 10 23 -3 12 -6 43 -6 70 0 35 -4 47
-15 47 -9 0 -18 -12 -22 -30 -9 -46 -23 -46 -23 -1 0 29 -4 41 -14 41 -8 0
-17 -3 -19 -7z"/>
<path d="M1952 2831 c-6 -36 -9 -67 -7 -69 8 -9 25 10 25 29 0 12 7 19 19 19
25 0 43 24 39 52 -2 16 -12 24 -34 29 l-30 6 -12 -66z m53 19 c0 -7 -6 -15
-12 -17 -8 -3 -13 4 -13 17 0 13 5 20 13 18 6 -3 12 -11 12 -18z"/>
<path d="M1463 2882 c-10 -6 -10 -22 -2 -70 12 -65 29 -84 29 -32 0 17 5 30
10 30 6 0 10 5 10 10 0 6 -7 10 -15 10 -8 0 -15 9 -15 20 0 11 5 20 10 20 6 0
10 5 10 10 0 12 -20 13 -37 2z"/>
<path d="M2051 2817 c-15 -67 -8 -87 30 -87 24 0 30 5 38 38 22 82 23 92 12
92 -5 0 -15 -19 -21 -42 -16 -62 -18 -68 -29 -68 -18 0 -20 17 -6 68 10 41 11
52 1 52 -7 0 -18 -24 -25 -53z"/>
<path d="M1347 2853 c-4 -3 -7 -23 -7 -44 0 -50 40 -99 67 -83 24 15 29 78 8
110 -15 23 -53 33 -68 17z m53 -32 c13 -24 13 -68 1 -76 -14 -8 -41 36 -41 67
0 33 24 38 40 9z"/>
<path d="M2166 2841 c-4 -5 -1 -11 5 -13 7 -2 6 -21 -4 -61 -12 -45 -12 -57
-2 -57 6 0 19 24 27 53 8 29 19 51 26 50 22 -5 12 25 -10 31 -31 8 -36 8 -42
-3z"/>
<path d="M2247 2778 c-8 -24 -18 -51 -22 -60 -4 -11 0 -20 15 -28 26 -14 38
-6 21 14 -15 17 -7 36 15 36 16 0 19 17 3 22 -5 2 -7 11 -4 21 4 9 11 14 16
11 5 -3 14 -2 20 2 8 4 7 9 -2 15 -30 19 -47 9 -62 -33z"/>
<path d="M1211 2801 c-11 -7 -9 -20 9 -70 23 -62 26 -66 54 -55 20 8 21 24 2
24 -22 0 -30 19 -16 35 12 15 11 16 -12 19 -16 1 -24 36 -9 36 6 0 11 5 11 10
0 12 -20 13 -39 1z"/>
<path d="M1138 2774 c-30 -16 -37 -34 -13 -34 8 0 23 -20 34 -45 11 -25 25
-45 30 -45 16 0 13 16 -8 59 -11 21 -17 48 -14 60 6 25 6 25 -29 5z"/>
<path d="M2320 2732 c-26 -61 -27 -65 -12 -70 6 -2 15 10 20 25 10 28 10 28
11 -9 1 -42 21 -53 21 -13 0 14 9 33 20 42 25 22 26 59 1 73 -31 16 -35 13
-61 -48z m60 14 c0 -16 -18 -31 -27 -22 -8 8 5 36 17 36 5 0 10 -6 10 -14z"/>
<path d="M1085 2690 c29 -57 31 -70 10 -70 -8 0 -26 23 -40 50 -14 28 -30 48
-35 45 -10 -6 14 -61 43 -99 18 -25 67 -15 67 14 0 29 -42 110 -57 110 -9 0
-6 -15 12 -50z"/>
<path d="M2486 2698 c-15 -8 -17 -18 -11 -55 7 -46 7 -46 -20 -39 -20 5 -26 3
-23 -6 3 -7 18 -13 34 -13 28 0 29 1 27 48 -1 44 1 48 18 44 25 -7 34 9 12 22
-12 6 -25 6 -37 -1z"/>
<path d="M958 2682 c-30 -18 -36 -32 -14 -32 8 0 27 -20 43 -45 15 -25 31 -45
36 -45 14 0 7 26 -17 61 -16 23 -23 44 -19 58 6 25 6 25 -29 3z"/>
<path d="M2541 2624 c-25 -32 -27 -67 -5 -88 22 -22 40 -9 19 14 -15 16 -15
22 -3 47 10 21 21 28 43 28 40 1 39 19 -1 23 -25 2 -37 -3 -53 -24z"/>
<path d="M890 2630 c0 -18 72 -110 81 -104 5 3 -8 30 -28 60 -36 51 -53 65
-53 44z"/>
<path d="M2617 2559 c-21 -27 -35 -54 -32 -60 7 -10 85 81 85 100 0 21 -15 10
-53 -40z"/>
<path d="M827 2582 c-21 -23 -22 -36 -2 -29 9 4 26 -9 46 -38 18 -25 35 -45
39 -45 20 0 15 17 -16 55 -22 27 -32 48 -28 59 9 22 -19 21 -39 -2z"/>
<path d="M2661 2529 c-41 -48 -42 -51 -26 -69 19 -21 43 -17 26 4 -13 16 5 37
25 29 10 -4 13 2 12 18 -3 20 1 24 20 22 27 -3 28 8 4 30 -17 15 -20 13 -61
-34z"/>
<path d="M753 2524 c-9 -25 10 -49 43 -52 39 -5 50 -17 33 -38 -12 -14 -11
-16 6 -13 15 3 20 12 20 34 0 27 -4 30 -38 36 -46 7 -53 14 -37 34 10 12 10
15 -4 15 -9 0 -19 -7 -23 -16z"/>
<path d="M2722 2477 c-40 -41 -53 -67 -32 -67 5 0 17 11 26 25 24 37 36 30 19
-11 -24 -57 -7 -60 46 -8 51 51 58 85 6 37 l-30 -28 7 25 c25 85 19 89 -42 27z"/>
<path d="M700 2472 c0 -5 11 -19 25 -32 32 -30 26 -35 -20 -16 -58 25 -61 8
-9 -45 33 -33 51 -46 58 -39 7 7 1 18 -19 35 -33 27 -25 31 24 14 49 -17 49
-3 1 46 -43 43 -60 54 -60 37z"/>
<path d="M2804 2385 c-27 -27 -30 -75 -5 -83 9 -3 11 1 6 16 -14 45 34 84 75
62 22 -12 27 -1 8 18 -20 20 -57 14 -84 -13z"/>
<path d="M616 2392 c-3 -5 19 -30 49 -55 57 -50 86 -50 32 -1 -59 54 -75 65
-81 56z"/>
<path d="M2879 2334 c-63 -50 -63 -50 -46 -74 10 -14 17 -18 22 -10 4 6 4 14
1 17 -3 3 -1 12 5 20 9 10 15 10 25 2 8 -6 15 -8 15 -3 1 5 2 16 3 24 0 9 10
14 24 13 25 -3 27 4 9 29 -12 15 -17 13 -58 -18z"/>
<path d="M535 2280 c-7 -11 72 -110 87 -110 5 0 7 8 3 19 -5 16 21 51 32 44 1
-2 4 0 6 3 1 5 -107 54 -119 54 -2 0 -6 -5 -9 -10z m85 -52 c0 -12 -24 -10
-38 4 -20 20 -13 28 13 16 14 -6 25 -15 25 -20z"/>
<path d="M2943 2209 c-54 -21 -69 -39 -34 -39 23 0 36 -16 22 -25 -6 -3 -7
-13 -4 -21 4 -12 17 -5 54 32 76 74 63 92 -38 53z m32 -29 c-16 -18 -35 -19
-35 -1 0 9 43 31 49 25 2 -2 -4 -13 -14 -24z"/>
<path d="M487 2203 c-7 -12 111 -84 118 -73 3 5 -19 25 -49 45 -59 38 -63 39
-69 28z"/>
<path d="M447 2132 c-10 -10 -17 -23 -17 -28 0 -5 27 -23 59 -41 l58 -32 12
25 c27 60 -68 125 -112 76z m62 -17 c28 -14 45 -38 34 -48 -3 -4 -57 22 -82
39 -4 3 9 24 15 24 3 0 18 -7 33 -15z"/>
<path d="M3003 2122 c-29 -14 -53 -30 -53 -34 0 -12 18 -10 50 7 37 19 39 7 5
-25 -22 -21 -34 -50 -20 -50 18 0 125 62 120 70 -4 6 -18 4 -35 -5 -43 -22
-45 -19 -16 19 14 19 26 37 26 40 0 12 -26 4 -77 -22z"/>
<path d="M3061 2019 c-62 -28 -63 -29 -49 -51 22 -33 69 -35 104 -5 24 21 27
28 18 55 l-9 30 -64 -29z m39 -41 c-24 -19 -70 -25 -70 -8 0 15 84 50 89 37 2
-6 -6 -19 -19 -29z"/>
<path d="M390 2028 c1 -18 98 -91 110 -83 8 5 8 11 0 20 -14 16 -5 35 16 35 8
0 14 4 14 9 0 4 -26 13 -57 20 -72 14 -83 14 -83 -1z m90 -34 c0 -11 -5 -11
-25 -2 -14 6 -25 14 -25 18 0 4 11 5 25 2 14 -2 25 -10 25 -18z"/>
<path d="M358 1954 c-28 -28 15 -74 51 -54 33 17 54 13 48 -11 -3 -13 -1 -19
6 -16 7 2 13 13 15 25 4 27 -30 47 -57 32 -30 -16 -49 -12 -53 11 -2 11 -6 17
-10 13z"/>
<path d="M3170 1886 c0 -8 -22 -22 -52 -32 -62 -20 -62 -20 -54 -33 4 -6 26
-3 61 9 39 13 55 15 58 7 9 -24 19 3 12 32 -7 31 -25 43 -25 17z"/>
<path d="M318 1835 c-14 -32 -8 -38 65 -58 46 -12 57 -13 57 -2 0 7 -12 16
-27 21 l-28 8 34 5 c19 3 36 12 39 19 3 10 -4 12 -31 7 -26 -5 -36 -3 -40 9
-10 26 -56 20 -69 -9z m52 -10 c0 -8 -6 -15 -14 -15 -17 0 -28 14 -19 24 12
12 33 6 33 -9z"/>
<path d="M3127 1783 c-36 -11 -47 -19 -43 -30 3 -8 6 -19 6 -24 0 -5 5 -9 10
-9 6 0 10 6 10 14 0 21 20 30 33 17 15 -15 27 -14 27 3 0 21 23 25 37 7 11
-14 12 -12 13 12 0 32 -16 34 -93 10z"/>
<path d="M290 1727 c0 -19 110 -71 123 -58 8 8 7 11 -1 11 -7 0 -12 9 -12 20
0 11 7 20 15 20 8 0 15 5 15 10 0 6 -30 10 -70 10 -51 0 -70 -4 -70 -13z m90
-17 c0 -13 -20 -13 -40 0 -12 8 -9 10 13 10 15 0 27 -4 27 -10z"/>
<path d="M3155 1710 c-30 -12 -47 -36 -43 -62 3 -22 4 -22 18 7 18 36 62 45
91 19 10 -9 21 -15 24 -12 11 11 -9 40 -32 49 -28 10 -31 10 -58 -1z"/>
<path d="M277 1674 c-11 -11 -8 -64 3 -64 6 0 10 5 10 11 0 6 6 9 14 6 7 -3
34 -9 60 -12 64 -10 60 10 -6 24 -28 6 -56 18 -62 27 -7 8 -15 12 -19 8z"/>
<path d="M3153 1613 c-42 -5 -43 -23 -2 -23 41 0 37 -33 -6 -40 -53 -9 -10
-20 54 -14 42 5 61 11 61 21 0 9 -9 13 -27 11 -20 -2 -28 2 -28 12 0 9 11 16
28 18 15 2 25 8 22 13 -6 9 -40 10 -102 2z"/>
<path d="M370 1505 c0 -8 5 -15 10 -15 6 0 10 7 10 15 0 8 -4 15 -10 15 -5 0
-10 -7 -10 -15z"/>
<path d="M3130 1490 c0 -5 19 -10 43 -11 l42 0 -42 -22 c-24 -11 -43 -25 -43
-29 0 -4 32 -8 70 -8 40 0 70 4 70 10 0 6 -19 10 -42 11 l-43 0 43 22 c23 11
42 25 42 29 0 4 -31 8 -70 8 -40 0 -70 -4 -70 -10z"/>
<path d="M302 1463 c-43 -3 -53 -7 -50 -21 2 -9 17 -19 36 -23 49 -10 51 -19
4 -19 -34 0 -42 -3 -42 -19 0 -14 10 -20 46 -25 66 -9 94 -8 94 4 0 6 -15 10
-32 10 -18 0 -40 5 -48 10 -11 7 -6 10 20 10 33 0 70 14 60 23 -3 2 -25 9 -50
14 l-45 11 48 1 c35 1 47 5 47 16 0 8 -8 14 -17 13 -10 -1 -42 -3 -71 -5z"/>
<path d="M3148 1379 c-24 -13 -23 -56 1 -69 47 -25 121 -3 121 35 0 35 -82 58
-122 34z m97 -30 c16 -16 -10 -31 -51 -27 -42 3 -61 32 -27 41 22 6 65 -1 78
-14z"/>
<path d="M321 1256 c-88 -35 -79 -50 37 -59 28 -2 52 -3 52 -2 0 1 -9 13 -21
26 -18 21 -18 25 -5 35 9 6 13 14 9 17 -8 9 -9 9 -72 -17z m39 -26 c0 -5 -15
-10 -32 -9 -28 0 -30 2 -13 9 28 12 45 12 45 0z"/>
<path d="M3127 1274 c-11 -11 -8 -54 3 -54 6 0 10 7 10 16 0 14 8 16 60 10 67
-8 86 9 23 19 -21 4 -49 8 -63 11 -14 3 -29 2 -33 -2z"/>
<path d="M3122 1188 c-17 -17 -15 -49 6 -64 27 -21 99 -18 112 5 5 11 7 26 4
34 -12 32 -98 49 -122 25z m86 -24 c29 -20 20 -34 -21 -34 -41 0 -62 14 -54
34 8 20 46 21 75 0z"/>
<path d="M328 1168 c-64 -11 -76 -25 -26 -30 42 -4 47 -24 8 -33 -21 -5 -29
-10 -22 -17 6 -6 31 -5 71 3 64 12 82 29 32 29 -40 0 -48 27 -10 35 16 4 29
11 29 16 0 10 -4 10 -82 -3z"/>
<path d="M3110 1073 c-32 -13 -39 -43 -14 -67 22 -23 54 -20 54 4 0 11 -4 20
-10 20 -5 0 -10 -5 -10 -11 0 -8 -5 -8 -15 1 -8 7 -12 16 -9 21 7 12 51 11 75
-1 20 -11 27 -40 9 -40 -5 0 -10 -4 -10 -10 0 -22 30 -8 36 16 5 18 1 31 -12
44 -21 20 -70 32 -94 23z"/>
<path d="M365 1031 c-17 -35 -30 -39 -43 -15 -7 12 -11 13 -16 5 -10 -16 12
-41 36 -41 11 0 26 13 36 30 18 32 42 40 42 15 0 -8 5 -15 11 -15 6 0 9 10 7
23 -2 15 -11 23 -30 25 -21 3 -30 -3 -43 -27z"/>
<path d="M383 946 c-70 -43 -60 -59 30 -50 37 4 67 11 67 15 0 5 -6 9 -14 9
-17 0 -31 33 -17 38 15 5 14 22 -1 21 -7 0 -36 -15 -65 -33z m47 -15 c0 -10
-25 -21 -48 -21 -12 1 -10 5 8 15 29 17 40 18 40 6z"/>
<path d="M3056 951 c-3 -5 9 -14 26 -20 18 -6 44 -23 59 -37 19 -18 29 -22 34
-14 5 8 1 16 -9 22 -22 12 -20 28 3 28 11 0 23 4 26 10 4 6 -12 9 -42 7 -26
-1 -58 2 -70 6 -12 4 -24 4 -27 -2z"/>
<path d="M1693 2243 c4 -27 11 -102 17 -168 19 -211 17 -205 51 -205 16 0 29
3 30 8 0 4 10 95 22 203 l23 197 -44 6 c-25 3 -58 6 -75 6 -30 0 -30 0 -24
-47z"/>
<path d="M1967 2252 c-3 -4 -26 -96 -53 -205 -42 -170 -47 -199 -34 -207 8 -5
21 -10 28 -10 11 0 192 351 192 373 0 15 -127 61 -133 49z"/>
<path d="M1467 2233 c-49 -20 -49 -22 56 -233 75 -150 84 -165 106 -162 14 1
27 4 29 6 2 3 -19 94 -46 203 -50 197 -51 198 -79 200 -15 1 -45 -5 -66 -14z"/>
<path d="M1285 2128 c-31 -16 -85 -70 -85 -84 0 -6 69 -75 152 -153 152 -140
153 -140 173 -121 19 20 18 21 -99 195 -65 96 -119 175 -120 175 0 0 -10 -6
-21 -12z"/>
<path d="M2095 1958 c-87 -131 -112 -175 -103 -185 6 -7 18 -13 28 -13 9 0 84
64 165 143 l148 143 -53 42 c-29 23 -56 42 -61 42 -5 0 -60 -77 -124 -172z"/>
<path d="M1066 1875 c-28 -54 -28 -56 -10 -70 10 -8 98 -48 194 -89 128 -55
178 -72 187 -64 22 18 14 42 -22 71 -87 69 -289 207 -304 207 -9 0 -28 -23
-45 -55z"/>
<path d="M2250 1824 c-80 -59 -154 -112 -164 -120 -18 -12 -18 -16 -6 -39 8
-14 19 -24 24 -21 6 3 90 39 186 81 96 42 179 80 184 85 11 11 -45 114 -64
117 -8 1 -80 -45 -160 -103z"/>
<path d="M1643 1779 c-94 -36 -182 -145 -183 -226 0 -29 7 -36 98 -91 53 -33
120 -84 148 -114 l51 -54 69 66 c38 36 107 87 153 114 l83 48 -5 38 c-11 88
-74 165 -172 211 -74 36 -162 39 -242 8z"/>
<path d="M985 1633 c-4 -27 -9 -56 -12 -66 -3 -13 1 -12 21 8 23 22 33 25 103
25 52 0 116 -10 193 -29 63 -16 117 -27 119 -25 15 14 -46 38 -211 83 -102 28
-191 51 -196 51 -6 0 -14 -21 -17 -47z"/>
<path d="M2485 1673 c-114 -27 -343 -98 -355 -110 -13 -14 -12 -15 10 -10 14
2 52 12 85 21 33 10 106 20 163 23 l103 6 31 -29 c25 -24 29 -26 25 -9 -3 11
-9 41 -13 68 -6 46 -10 49 -49 40z"/>
<path d="M1022 1558 c-10 -13 2 -16 96 -21 220 -12 378 -78 530 -220 51 -49
96 -86 99 -83 13 13 -23 70 -75 117 -65 60 -259 158 -372 189 -103 28 -261 38
-278 18z"/>
<path d="M2252 1545 c-186 -48 -337 -120 -419 -200 -48 -47 -74 -97 -59 -113
4 -3 30 19 58 51 129 147 295 224 542 250 64 6 118 17 119 22 5 21 -145 15
-241 -10z"/>
<path d="M974 1481 c-48 -21 -26 -26 109 -27 118 -1 158 -6 240 -27 104 -28
208 -77 235 -112 16 -20 80 -50 89 -41 2 2 -17 22 -42 44 -62 54 -213 128
-300 147 -86 18 -302 29 -331 16z"/>
<path d="M2260 1474 c-144 -30 -293 -100 -356 -165 -35 -37 -36 -41 -14 -34
14 4 53 27 88 52 135 96 245 126 454 127 81 0 145 3 142 7 -18 30 -202 37
-314 13z"/>
<path d="M2353 1399 c-106 -9 -237 -38 -303 -68 -64 -28 -24 -26 89 6 82 23
115 27 231 28 74 0 171 -4 215 -8 74 -7 78 -7 60 8 -41 33 -150 45 -292 34z"/>
<path d="M927 1386 c-27 -7 -54 -19 -60 -26 -10 -10 13 -11 113 -4 201 14 294
10 402 -20 53 -14 104 -26 114 -26 31 1 -54 41 -131 63 -93 25 -367 34 -438
13z"/>
<path d="M940 1318 c-87 -10 -150 -29 -150 -47 0 -5 15 -8 33 -5 17 2 133 15
255 29 123 13 227 26 230 29 9 9 -274 4 -368 -6z"/>
<path d="M2212 1324 c3 -3 107 -16 230 -29 122 -14 238 -27 256 -29 17 -3 32
0 32 5 0 18 -64 37 -168 48 -107 11 -360 15 -350 5z"/>
<path d="M1265 1284 c-135 -21 -406 -56 -475 -62 -81 -7 -85 -8 -107 -41 -13
-19 -23 -38 -23 -42 0 -18 199 -8 365 16 337 51 472 44 620 -30 92 -47 137
-46 231 0 147 73 265 80 574 35 121 -17 247 -30 307 -30 112 0 113 1 72 60
-16 24 -26 26 -191 43 -95 10 -229 27 -298 39 -201 33 -355 16 -498 -54 l-84
-41 -76 36 c-42 21 -106 44 -142 52 -68 16 -224 26 -275 19z"/>
<path d="M1468 899 c-22 -12 -23 -42 -4 -72 9 -13 16 -54 18 -99 2 -62 6 -78
18 -78 14 0 14 10 6 77 -8 60 -7 78 3 81 8 3 4 9 -11 16 -29 15 -36 55 -12 73
21 15 7 17 -18 2z"/>
<path d="M1753 899 c-19 -7 -20 -15 -21 -123 -1 -99 2 -116 15 -116 13 0 15
16 12 113 -4 111 -4 112 19 115 27 4 75 -24 67 -38 -4 -6 6 -10 21 -10 28 0
28 0 -12 29 -46 33 -72 41 -101 30z"/>
<path d="M1002 814 c-22 -15 -30 -48 -13 -58 12 -8 53 -164 47 -175 -4 -5 2
-7 12 -4 18 4 18 8 -2 82 -12 43 -27 85 -34 94 -18 22 -6 56 23 63 25 6 69
-12 61 -25 -3 -4 7 -6 22 -3 27 5 26 5 -13 23 -51 22 -75 23 -103 3z"/>
<path d="M1568 823 c12 -2 32 -2 45 0 12 2 2 4 -23 4 -25 0 -35 -2 -22 -4z"/>
<path d="M1383 809 c9 -5 17 -14 17 -19 0 -15 -38 -12 -43 3 -2 7 -3 6 -3 -3
1 -9 13 -16 29 -18 28 -3 36 -17 15 -25 -10 -4 -10 -6 0 -6 7 -1 12 -15 12
-36 0 -28 -4 -35 -19 -35 -24 0 -37 36 -21 55 10 12 9 15 -3 15 -21 0 -31 -34
-17 -60 23 -42 98 -12 86 36 -4 16 -1 24 11 27 17 4 17 5 1 6 -12 1 -18 9 -18
24 0 29 -18 47 -44 47 -19 -1 -19 -1 -3 -11z"/>
<path d="M1660 772 c0 -35 -5 -54 -18 -65 -35 -32 -72 -14 -72 33 0 14 5 31
12 38 7 7 8 12 2 12 -19 0 -34 -24 -34 -55 0 -17 5 -36 12 -43 17 -17 58 -15
81 6 19 16 20 16 15 -10 -4 -21 -1 -28 11 -28 13 0 16 13 16 80 0 57 -4 80
-12 80 -9 0 -13 -16 -13 -48z"/>
<path d="M1833 813 c15 -2 37 -2 50 0 12 2 0 4 -28 4 -27 0 -38 -2 -22 -4z"/>
<path d="M1924 793 c1 -15 -9 -19 -54 -23 -45 -4 -57 -9 -68 -30 -17 -31 -2
-80 25 -80 14 0 15 2 5 9 -8 5 -12 23 -10 47 l3 39 48 3 49 3 -4 -55 c-5 -85
18 -71 26 16 4 40 12 76 19 80 7 5 2 8 -14 8 -19 0 -26 -5 -25 -17z"/>
<path d="M1288 793 c7 -3 16 -2 19 1 4 3 -2 6 -13 5 -11 0 -14 -3 -6 -6z"/>
<path d="M2093 793 c9 -2 23 -2 30 0 6 3 -1 5 -18 5 -16 0 -22 -2 -12 -5z"/>
<path d="M2504 785 c-4 -8 -3 -26 0 -40 6 -22 4 -25 -16 -22 -13 2 -17 2 -9 0
15 -6 10 -57 -13 -123 -12 -36 -12 -40 3 -40 12 0 20 17 29 68 7 37 17 71 22
76 4 4 6 23 3 42 -7 41 21 59 43 29 12 -16 14 -16 14 -3 0 29 -66 40 -76 13z"/>
<path d="M1237 770 c4 -14 -1 -21 -21 -26 -34 -8 -49 -35 -37 -67 5 -14 16
-27 23 -30 24 -8 -6 -42 -38 -42 -22 0 -29 5 -29 20 0 13 6 19 15 17 8 -2 11
0 7 5 -5 4 -16 8 -25 8 -27 0 -27 34 0 45 22 9 21 10 -7 7 -34 -2 -47 -33 -23
-51 9 -6 15 -22 14 -36 -1 -22 4 -25 35 -28 29 -2 41 2 55 21 24 29 72 44 80
23 3 -9 13 -12 27 -8 21 6 21 6 -3 12 -20 5 -24 12 -22 33 2 19 -2 27 -13 27
-9 0 -15 -9 -15 -25 0 -27 -26 -35 -48 -13 -28 28 -9 72 33 80 28 5 34 48 7
48 -15 0 -19 -5 -15 -20z"/>
<path d="M1615 780 c3 -5 8 -10 11 -10 2 0 4 5 4 10 0 6 -5 10 -11 10 -5 0 -7
-4 -4 -10z"/>
<path d="M2168 783 c21 -4 23 -8 16 -51 -3 -26 -13 -53 -22 -59 -11 -9 -12
-13 -3 -13 8 0 11 -8 8 -20 -4 -14 0 -20 11 -20 12 0 18 10 19 33 5 65 12 79
41 75 33 -4 41 -37 18 -73 -15 -23 -15 -24 1 -18 24 9 33 23 33 53 0 34 -17
50 -52 50 -18 0 -28 5 -28 15 0 10 10 15 27 15 43 0 22 7 -37 12 -30 3 -45 3
-32 1z"/>
<path d="M1188 773 c6 -2 18 -2 25 0 6 3 1 5 -13 5 -14 0 -19 -2 -12 -5z"/>
<path d="M1138 763 c6 -2 18 -2 25 0 6 3 1 5 -13 5 -14 0 -19 -2 -12 -5z"/>
<path d="M2288 763 c6 -2 18 -2 25 0 6 3 1 5 -13 5 -14 0 -19 -2 -12 -5z"/>
<path d="M1088 753 c6 -2 18 -2 25 0 6 3 1 5 -13 5 -14 0 -19 -2 -12 -5z"/>
<path d="M2102 748 c-24 -24 -9 -88 22 -88 6 0 5 5 -2 12 -18 18 -15 45 8 68
19 19 19 20 2 20 -10 0 -23 -5 -30 -12z"/>
<path d="M2338 753 c7 -3 16 -2 19 1 4 3 -2 6 -13 5 -11 0 -14 -3 -6 -6z"/>
<path d="M2162 730 c0 -14 2 -19 5 -12 2 6 2 18 0 25 -3 6 -5 1 -5 -13z"/>
<path d="M2378 743 c6 -2 18 -2 25 0 6 3 1 5 -13 5 -14 0 -19 -2 -12 -5z"/>
<path d="M688 729 c-20 -11 -25 -64 -7 -75 8 -4 7 -9 -2 -15 -11 -7 -11 -9 2
-9 11 0 24 -20 38 -59 11 -32 21 -63 21 -70 0 -6 7 -11 15 -11 8 0 15 3 15 7
0 19 -56 149 -67 156 -17 10 -17 51 0 65 6 5 23 12 37 15 23 4 22 4 -5 5 -16
1 -38 -3 -47 -9z"/>
<path d="M2420 721 c0 -11 -7 -26 -15 -34 -9 -10 -11 -17 -4 -19 18 -6 -9 -60
-28 -56 -24 4 -28 32 -8 51 8 9 11 18 6 21 -13 8 -41 -21 -41 -43 0 -25 20
-41 53 -41 22 0 30 6 38 30 7 20 18 30 32 31 19 1 19 2 3 6 -15 4 -17 11 -13
39 4 25 2 34 -9 34 -8 0 -14 -9 -14 -19z"/>
<path d="M776 716 c3 -8 13 -12 27 -8 20 5 20 6 1 13 -29 11 -34 10 -28 -5z"/>
<path d="M933 723 c-18 -2 -33 -9 -33 -15 0 -5 7 -8 14 -5 9 4 17 -2 21 -14 8
-24 7 -26 -26 -34 -20 -5 -28 -1 -39 19 -11 21 -18 24 -39 19 -52 -12 -67 -22
-25 -17 32 5 42 3 47 -10 8 -21 -19 -46 -49 -46 -14 0 -23 -4 -19 -10 3 -5 12
-7 20 -4 9 4 19 -6 29 -30 12 -30 20 -36 43 -35 26 0 26 1 7 9 -12 5 -26 22
-32 39 -12 35 -3 44 59 56 36 7 36 6 49 -39 7 -25 18 -46 25 -46 10 0 9 15 -6
63 -23 77 -24 94 -1 100 21 6 0 5 -45 0z"/>
<path d="M2578 698 c5 -5 16 -8 23 -6 8 3 3 7 -10 11 -17 4 -21 3 -13 -5z"/>
<path d="M1126 678 c3 -5 10 -6 15 -3 13 9 11 12 -6 12 -8 0 -12 -4 -9 -9z"/>
<path d="M1866 675 c-3 -8 -1 -15 4 -15 6 0 10 7 10 15 0 8 -2 15 -4 15 -2 0
-6 -7 -10 -15z"/>
<path d="M2210 660 c0 -11 4 -20 9 -20 5 0 7 9 4 20 -3 11 -7 20 -9 20 -2 0
-4 -9 -4 -20z"/>
<path d="M2658 673 c7 -3 16 -2 19 1 4 3 -2 6 -13 5 -11 0 -14 -3 -6 -6z"/>
<path d="M2600 652 c0 -4 10 -12 23 -17 27 -12 31 -62 5 -79 -22 -13 -47 0
-65 35 -8 15 -13 18 -13 8 0 -24 43 -59 72 -59 36 0 52 23 44 63 -5 24 -14 35
-36 44 -17 6 -30 8 -30 5z"/>
<path d="M2720 640 c0 -17 -5 -19 -27 -15 -26 5 -26 5 -5 -4 26 -12 26 -14 8
-74 -13 -42 -12 -46 5 -50 11 -3 17 -1 14 3 -3 5 2 37 12 71 12 45 23 63 37
67 20 5 20 5 0 13 -32 13 -44 10 -44 -11z"/>
<path d="M2803 623 c7 -12 -26 -118 -43 -139 -8 -9 -6 -13 7 -16 14 -3 22 11
40 66 12 38 28 73 35 77 9 6 9 9 1 9 -6 0 -19 3 -29 7 -11 4 -15 3 -11 -4z"/>
<path d="M917 571 c-4 -17 -3 -21 5 -13 5 5 8 16 6 23 -3 8 -7 3 -11 -10z"/>
</g>
</svg>
